<?xml version="1.0" encoding="utf-8"?>
<!-- Generator: Adobe Illustrator 25.2.0, SVG Export Plug-In . SVG Version: 6.00 Build 0)  -->
<svg version="1.1" id="Layer_1" xmlns="http://www.w3.org/2000/svg" xmlns:xlink="http://www.w3.org/1999/xlink" x="0px" y="0px"
	 viewBox="0 0 60 60" style="enable-background:new 0 0 60 60;" xml:space="preserve">
<style type="text/css">
	.st0{fill-rule:evenodd;clip-rule:evenodd;fill:#FFFFFF;}
	.st1{fill-rule:evenodd;clip-rule:evenodd;}
</style>
<circle class="st0" cx="30.1" cy="29.8" r="29.2"/>
<path class="st1" d="M30,2C14.6,2,2,14.6,2,30s12.6,28,28,28s28-12.6,28-28S45.4,2,30,2 M30,60C13.5,60,0,46.5,0,30S13.5,0,30,0
	s30,13.5,30,30S46.5,60,30,60"/>
<path class="st1" d="M48.4,31.8c0.3,1.2,0.5,2.5,0.6,3.5l2.6-1.8C50.8,32.9,49.6,32.3,48.4,31.8 M48.1,38.2c-0.1,0-0.3,0-0.4-0.1
	c-0.3-0.2-0.5-0.5-0.6-0.9c-0.1-2.1-0.6-5.5-1.3-6.4c-0.3-0.3-0.3-0.8,0-1.2c0.2-0.4,0.7-0.5,1.1-0.4c0.6,0.1,5.7,1.5,7,4
	c0.2,0.4,0.1,1-0.3,1.3L48.7,38C48.5,38.1,48.3,38.2,48.1,38.2"/>
<path class="st1" d="M23.8,10.6c-2.6,3.3-3.2,6.5-3.3,8.2c0,0.3-0.2,0.6-0.5,0.8c-2.4,1.3-3.8,2.8-3.8,2.8C9.6,29,14,35.7,14.2,36
	c0.3,0.4,0.2,0.9-0.1,1.3l-2,2c-0.2,0.2-0.3,0.4-0.3,0.7c0,0.3,0.1,0.5,0.3,0.7c0.4,0.4,1,0.4,1.4,0l6.3-6.3
	c0.1-0.1,1.3-1.2,3.2-2.5c0.2-0.2,0.5-0.2,0.8-0.1c0.3,0.1,0.5,0.3,0.6,0.5c0.6,1.2,2,2.5,3.4,3.7c-0.5-2.4-0.6-4.9-0.6-5.9
	c0-0.4,0.2-0.8,0.6-0.9c5.6-2.7,11-3.2,15.7-1.5c-5.6-7.4-11.7-10.7-18-9.8c-0.5,0.1-1-0.3-1.1-0.8C24.1,14.8,23.9,12.4,23.8,10.6
	L23.8,10.6z M12.8,43c-0.8,0-1.5-0.3-2.1-0.9c-0.6-0.6-0.9-1.3-0.9-2.1c0-0.8,0.3-1.6,0.9-2.1l1.5-1.5C11,34.2,8.3,27.5,14.8,21
	c0,0,1.4-1.5,3.8-2.9c0.3-2.4,1.3-6.7,5.5-10.8c0.3-0.3,0.7-0.4,1.1-0.2c0.4,0.2,0.6,0.5,0.6,0.9c0,0-0.1,4.2,0.5,7.6
	c5.5-0.4,13.3,1.9,21.2,14c0.3,0.4,0.2,0.9-0.1,1.3c-0.3,0.3-0.9,0.4-1.3,0.1c-4.8-3.2-10.5-3.3-16.8-0.4c0.1,2.7,0.5,5.9,1.4,7.5
	c0.2,0.4,0.1,0.9-0.2,1.2c-0.3,0.3-0.8,0.3-1.2,0.1c-0.2-0.1-4-2.7-5.9-5.3c-1.3,1-2.1,1.7-2.1,1.7l-6.2,6.2
	C14.3,42.7,13.6,43,12.8,43L12.8,43z"/>
<path class="st1" d="M18,28c0,0.6-0.4,1-1,1s-1-0.4-1-1s0.4-1,1-1S18,27.4,18,28"/>
</svg>
